<!-- sample rectangle -->
<svg width="253" height="99" viewBox="0 0 253 99" fill="none" xmlns="http://www.w3.org/2000/svg">
<path d="M42.8325 33.2031H38.3086V48.9331C36.6761 47.9647 34.3242 47.1346 31.2529 46.4429C28.3753 45.7788 25.8851 45.4468 23.7822 45.4468C18.7188 45.4468 14.4715 46.346 11.0405 48.1445C9.10368 49.1683 8.13525 50.5103 8.13525 52.1704C8.13525 54.384 9.29736 55.4907 11.6216 55.4907C13.0327 55.4907 14.8727 55.0757 17.1416 54.2456C18.6081 53.7199 20.4896 53.0558 22.7861 52.2534C23.7546 51.9214 25.4701 51.7554 27.9326 51.7554C32.7194 51.7554 36.2887 53.2357 38.6406 56.1963C39.7751 57.6074 40.3423 59.2676 40.3423 61.1768C40.3423 65.5762 37.5754 69.0348 32.0415 71.5527C29.745 72.6042 27.5591 73.1991 25.4839 73.3374C27.4761 75.3296 29.3714 76.3257 31.1699 76.3257C31.751 76.3257 32.3735 76.2427 33.0376 76.0767L37.2295 82.9248C36.3717 83.6719 34.6147 84.0454 31.9585 84.0454C29.8003 84.0454 27.9741 83.3122 26.48 81.8457C25.6776 81.0433 24.5431 79.3693 23.0767 76.8237C21.8315 74.6379 20.7939 73.5311 19.9639 73.5034C14.8451 73.3651 10.9022 72.4382 8.13525 70.7227C6.39209 69.6436 5.52051 68.1632 5.52051 66.2817C5.52051 63.9575 6.90397 62.7954 9.6709 62.7954C10.6947 62.7954 12.8252 63.5978 16.0625 65.2026C19.3275 66.7798 22.0114 67.5684 24.1143 67.5684C28.32 67.5684 32.2629 66.5723 35.9429 64.5801C37.7414 63.6117 38.6406 62.4219 38.6406 61.0107C38.6406 58.9079 36.9805 57.8564 33.6602 57.8564C32.6364 57.8564 29.3299 58.6035 23.7407 60.0977C20.4481 60.9831 18.4282 61.4258 17.6812 61.4258C13.2817 61.4258 9.65706 59.3506 6.80713 55.2002C5.42367 53.208 4.73193 51.0636 4.73193 48.7671C4.70426 44.091 7.90007 40.9367 14.3193 39.3042C16.9479 38.6401 19.4243 38.3081 21.7485 38.3081C24.4048 38.3081 28.1678 38.9583 33.0376 40.2588V33.2031H0.000488281V28.2227H42.8325V33.2031ZM89.5244 33.2031H41.9194V28.2227H89.5244V33.2031ZM86.2041 56.1548C86.2041 59.1984 85.291 62.076 83.4648 64.7876C81.777 67.3055 79.5496 69.3669 76.7827 70.9717C74.0158 72.5488 71.4564 73.3374 69.1045 73.3374C66.8079 73.3374 63.9442 72.0508 60.5132 69.4775C58.853 68.2324 56.4181 66.0881 53.2085 63.0444V98.2397L46.5679 94.7534V39.8438H53.0425V49.9707L55.5742 47.3145C61.4124 41.1995 66.1439 38.1421 69.7686 38.1421C73.6976 38.1421 77.4468 40.1758 81.0161 44.2432C84.4748 48.1999 86.2041 52.1704 86.2041 56.1548ZM82.0952 51.3403C82.0952 49.2375 81.0023 47.2176 78.8164 45.2808C77.7373 44.3123 76.3677 43.8281 74.7075 43.8281C71.4425 43.8281 67.389 45.8065 62.5469 49.7632C57.5664 53.8306 55.0762 57.4414 55.0762 60.5957C55.0762 62.4495 56.8055 64.082 60.2642 65.4932C61.8136 66.1296 63.3216 66.4478 64.7881 66.4478C69.6025 66.4478 73.7806 64.5939 77.3223 60.8862C80.5042 57.5659 82.0952 54.384 82.0952 51.3403ZM129.285 33.2031H101.644V39.8438C101.754 39.8438 101.865 39.8991 101.976 40.0098C102.086 40.1204 102.183 40.1758 102.266 40.1758C102.045 40.1758 101.92 40.1619 101.893 40.1343C101.893 39.9959 103.954 39.5532 108.077 38.8062C109.598 38.5295 111.106 38.3911 112.601 38.3911C118.826 38.3911 122.824 40.1343 124.595 43.6206C125.785 45.9448 126.38 50.6348 126.38 57.6904V73.6694C125.799 73.4481 123.599 72.5488 119.781 70.9717C119.781 70.0863 119.601 69.519 119.241 69.27C117.775 70.1278 116.571 70.778 115.63 71.2207C112.642 72.6318 109.17 73.3374 105.213 73.3374C99.762 73.3374 95.5563 71.6219 92.5957 68.1909C91.1569 66.5308 90.4375 64.6769 90.4375 62.6294C90.4375 60.3328 91.5719 58.0501 93.8408 55.7812C98.2402 51.3818 103.705 49.1821 110.235 49.1821C114.192 49.1821 117.374 50.0952 119.781 51.9214V48.103C118.563 46.5535 117.374 45.516 116.211 44.9902C115.077 44.4645 113.514 44.2293 111.521 44.2847C107.067 44.3677 102.986 45.1839 99.2778 46.7334C97.6177 47.4251 95.999 48.0477 94.4219 48.6011V45.5298C94.7816 45.2254 95.3073 44.7689 95.999 44.1602C96.1097 44.0218 96.1789 43.9388 96.2065 43.9111V33.2031H87.6982V28.2227H129.285V33.2031ZM119.781 59.4751C119.781 58.2576 118.328 57.1647 115.423 56.1963C113.016 55.3939 111.01 54.9927 109.405 54.9927C103.567 54.9927 98.8905 57.0955 95.3765 61.3013C93.9653 62.9891 93.2598 64.3726 93.2598 65.4517C93.8408 67.4715 96.1235 68.4814 100.108 68.4814C105.254 68.4814 109.958 67.1948 114.219 64.6216C117.927 62.3804 119.781 60.6649 119.781 59.4751ZM171.329 33.2031H166.805V48.9331C165.172 47.9647 162.82 47.1346 159.749 46.4429C156.871 45.7788 154.381 45.4468 152.278 45.4468C147.215 45.4468 142.968 46.346 139.537 48.1445C137.6 49.1683 136.631 50.5103 136.631 52.1704C136.631 54.384 137.793 55.4907 140.118 55.4907C141.529 55.4907 143.369 55.0757 145.638 54.2456C147.104 53.7199 148.986 53.0558 151.282 52.2534C152.251 51.9214 153.966 51.7554 156.429 51.7554C161.215 51.7554 164.785 53.2357 167.137 56.1963C168.271 57.6074 168.838 59.2676 168.838 61.1768C168.838 65.5762 166.071 69.0348 160.538 71.5527C158.241 72.6042 156.055 73.1991 153.98 73.3374C155.972 75.3296 157.868 76.3257 159.666 76.3257C160.247 76.3257 160.87 76.2427 161.534 76.0767L165.726 82.9248C164.868 83.6719 163.111 84.0454 160.455 84.0454C158.296 84.0454 156.47 83.3122 154.976 81.8457C154.174 81.0433 153.039 79.3693 151.573 76.8237C150.328 74.6379 149.29 73.5311 148.46 73.5034C143.341 73.3651 139.398 72.4382 136.631 70.7227C134.888 69.6436 134.017 68.1632 134.017 66.2817C134.017 63.9575 135.4 62.7954 138.167 62.7954C139.191 62.7954 141.321 63.5978 144.559 65.2026C147.824 66.7798 150.507 67.5684 152.61 67.5684C156.816 67.5684 160.759 66.5723 164.439 64.5801C166.237 63.6117 167.137 62.4219 167.137 61.0107C167.137 58.9079 165.477 57.8564 162.156 57.8564C161.132 57.8564 157.826 58.6035 152.237 60.0977C148.944 60.9831 146.924 61.4258 146.177 61.4258C141.778 61.4258 138.153 59.3506 135.303 55.2002C133.92 53.208 133.228 51.0636 133.228 48.7671C133.2 44.091 136.396 40.9367 142.815 39.3042C145.444 38.6401 147.92 38.3081 150.245 38.3081C152.901 38.3081 156.664 38.9583 161.534 40.2588V33.2031H128.497V28.2227H171.329V33.2031ZM216.485 33.2031H182.991V45.6958C186.007 42.4032 188.802 40.2865 191.375 39.3457C192.814 38.82 194.432 38.5571 196.231 38.5571C202.982 38.5571 208.032 41.8774 211.38 48.5181C212.846 51.4233 213.58 54.2871 213.58 57.1094C213.58 62.2559 211.463 66.9043 207.229 71.0547C205.818 72.4382 204.767 73.3927 204.075 73.9185L197.269 69.8511C198.984 68.0526 200.935 65.839 203.121 63.2104C205.583 60.2498 206.828 56.5145 206.856 52.0044C206.884 49.3205 206.275 47.0793 205.03 45.2808C203.619 43.1779 201.626 42.1541 199.053 42.2095C196.674 42.2648 194.128 43.1641 191.417 44.9072C188.982 46.4567 186.962 48.3105 185.357 50.4688C183.614 52.793 182.742 55.0342 182.742 57.1924V73.6694L174.981 69.519V33.2031H170.416V28.2227H174.981C174.981 20.0879 172.864 13.1429 168.631 7.3877C166.085 3.92904 163.733 1.49414 161.575 0.0830078L169.959 0C174.607 2.54557 178.301 8.03792 181.041 16.4771C182.341 20.4891 182.991 24.4043 182.991 28.2227H216.485V33.2031ZM252.801 33.2031H231.8V66.6138C231.8 67.5545 232.104 68.4676 232.713 69.353C233.349 70.3215 234.124 70.8057 235.037 70.8057C239.16 70.8057 241.221 66.5446 241.221 58.0225L249.563 62.7954C246.382 69.8511 241.456 73.3651 234.788 73.3374C230.914 73.3097 227.898 71.5389 225.74 68.0249C224.799 66.5031 224.329 64.9813 224.329 63.4595V33.2031H215.655V28.2227H224.329V14.2773L231.8 19.4653V28.2227H252.801V33.2031Z" fill="black"/>
</svg>
