<svg width="98" height="127" viewBox="0 0 98 127" fill="none" xmlns="http://www.w3.org/2000/svg">
<path d="M46.0547 126.738C36.7969 126.738 28.7109 125.078 21.7969 121.758C14.9219 118.438 9.57031 113.789 5.74219 107.812C1.91406 101.836 0 94.8438 0 86.8359C0 82.6172 0.332031 78.8672 0.996094 75.5859C1.69922 72.3047 2.53906 69.3555 3.51562 66.7383C4.53125 64.082 5.54688 61.582 6.5625 59.2383C7.57812 56.8945 8.41797 54.5703 9.08203 52.2656C9.74609 49.9609 10.0781 47.5 10.0781 44.8828C10.0781 43.5938 10 42.1875 9.84375 40.6641C9.72656 39.1016 9.66797 37.9492 9.66797 37.207C9.66797 35.918 10.0391 34.8633 10.7812 34.043C11.5234 33.2227 12.5 32.8125 13.7109 32.8125C15.7812 32.8125 17.8711 33.4375 19.9805 34.6875C22.1289 35.9375 24.043 37.6758 25.7227 39.9023C27.4414 42.0898 28.75 44.6289 29.6484 47.5195L26.7188 48.1055C27.6562 46.4648 28.2422 45.0195 28.4766 43.7695C28.75 42.4805 28.8867 41.1719 28.8867 39.8438C28.8477 35.9766 28.125 32.3047 26.7188 28.8281C25.3516 25.3516 23.5938 22.0508 21.4453 18.9258C19.3359 15.8008 17.1289 12.8516 14.8242 10.0781C14.1992 9.375 13.7305 8.65234 13.418 7.91016C13.1055 7.16797 12.9492 6.42578 12.9492 5.68359C12.9492 3.80859 13.75 2.40234 15.3516 1.46484C16.9922 0.488281 19.1992 0 21.9727 0C27.1289 0 32.5586 0.625 38.2617 1.875C44.0039 3.08594 49.6875 5 55.3125 7.61719C60.9766 10.1953 66.3477 13.4961 71.4258 17.5195C76.5039 21.5039 80.9961 26.25 84.9023 31.7578C88.8477 37.2266 91.9531 43.4961 94.2188 50.5664C96.4844 57.6367 97.6172 65.5469 97.6172 74.2969C97.6172 82.1484 96.3867 89.2969 93.9258 95.7422C91.5039 102.188 88.0078 107.715 83.4375 112.324C78.8672 116.934 73.418 120.488 67.0898 122.988C60.8008 125.488 53.7891 126.738 46.0547 126.738ZM47.4023 110.273C52.0508 110.273 55.8984 109.258 58.9453 107.227C62.0313 105.195 64.3359 102.52 65.8594 99.1992C67.3828 95.8789 68.1445 92.2852 68.1445 88.418C68.1445 84.5898 67.4023 80.7422 65.918 76.875C64.4727 73.0078 62.3047 69.4336 59.4141 66.1523C56.5234 62.8711 52.9297 60.2148 48.6328 58.1836C48.3594 58.0664 48.1445 58.0859 47.9883 58.2422C47.832 58.3594 47.7734 58.5547 47.8125 58.8281C48.3203 63.6328 48.2422 68.1055 47.5781 72.2461C46.9141 76.3477 45.8008 79.4531 44.2383 81.5625C43.4961 79.8828 42.6562 78.3203 41.7188 76.875C40.8203 75.3906 39.6875 74.043 38.3203 72.832C38.125 72.6758 37.9297 72.6367 37.7344 72.7148C37.5781 72.7539 37.4805 72.9102 37.4414 73.1836C37.207 74.8633 36.6602 76.4062 35.8008 77.8125C34.9414 79.1797 34.0039 80.625 32.9883 82.1484C31.9727 83.6328 31.0742 85.3125 30.293 87.1875C29.5508 89.0234 29.1797 91.2305 29.1797 93.8086C29.1797 98.7305 30.8398 102.715 34.1602 105.762C37.5195 108.77 41.9336 110.273 47.4023 110.273Z" fill="url(#paint0_linear_3177_4173)"/>
<defs>
<linearGradient id="paint0_linear_3177_4173" x1="48.8086" y1="38.9766" x2="48.8086" y2="72.9766" gradientUnits="userSpaceOnUse">
<stop stop-color="#FF6E36"/>
<stop offset="1" stop-color="#FFEC0E"/>
</linearGradient>
</defs>
</svg>